# xmcd CD database file
#
# Track frame offsets:
#	150
#	19489
#	52838
#	77437
#	100536
#	116097
#	134434
#	163433
#	179621
#	202130
#	221989
#	244536
#	280187
#	298896
#	321193
#
# Disc length: 4568 seconds
#
# Revision: 0
# Processed by: cddbd v1.5.2PL0 Copyright (c) Steve Scherf et al.
# Submitted via: CDex 1.51
#
DISCID=e911d60f
DTITLE=Paul Gonsalves - Ellingtonia Moods and Blues and Gettin' Together
DYEAR=1960
DGENRE=Jazz
TTITLE0=It's Something That You Ought To Know (Ellingtonia Moods and Blues)
TTITLE1=Chocataw
TTITLE2=The Line-Up
TTITLE3=Way, Way Back
TTITLE4=Daydream
TTITLE5=I'm Beginning To See The Light
TTITLE6=D.A. Blues
TTITLE7=Yesterdays  ( Gettin' Together)
TTITLE8=J. And B. Blues
TTITLE9=I Surrender Dear
TTITLE10=Hard Groove
TTITLE11=Low Gravy
TTITLE12=I Cover The Waterfront
TTITLE13=Gettin' Together
TTITLE14=Walkin'
EXTD=YEAR: 1960
EXTT0=
EXTT1=
EXTT2=
EXTT3=
EXTT4=
EXTT5=
EXTT6=
EXTT7=
EXTT8=
EXTT9=
EXTT10=
EXTT11=
EXTT12=
EXTT13=
EXTT14=
PLAYORDER=
